<svg xmlns="http://www.w3.org/2000/svg" width="24" height="24" viewBox="0 0 24 24" fill="none" stroke="hsl(0, 0%, 98%)" stroke-width="2" stroke-linecap="round" stroke-linejoin="round">
  <path d="M12 2a5.5 5.5 0 0 0-5.5 5.5c0 1.62.8 3.09 2.02 4.02"/>
  <path d="M12 2a5.5 5.5 0 0 1 5.5 5.5c0 1.62-.8 3.09-2.02 4.02"/>
  <path d="M14.02 11.52c1.22.93 2.02 2.4 2.02 4.02a5.5 5.5 0 0 1-5.5 5.5"/>
  <path d="M9.98 11.52c-1.22.93-2.02 2.4-2.02 4.02A5.5 5.5 0 0 0 9.5 21a5.5 5.5 0 0 0 4.5-2.48"/>
  <path d="M17.5 11.5c.83.63 1.5 1.41 2 2.25"/>
  <path d="M6.5 11.5c-.83.63-1.5 1.41-2 2.25"/>
  <path d="M12 16a2.5 2.5 0 0 0-2.5 2.5"/>
  <path d="M12 16a2.5 2.5 0 0 1 2.5 2.5"/>
  <path d="M12 21a2.5 2.5 0 0 0 2.5-2.5"/>
  <path d="M12 21a2.5 2.5 0 0 1-2.5-2.5"/>
  <path d="M15.5 6.5c.83-.63 1.5-1.41 2-2.25"/>
  <path d="M8.5 6.5c-.83-.63-1.5-1.41-2-2.25"/>
</svg>
